<svg xmlns="http://www.w3.org/2000/svg" viewBox="0 0 50 44" shape-rendering="crispEdges" role="img" aria-label="ShmagStick logo">
<rect x="48" y="0" width="2" height="1" fill="#000000"/>
<rect x="48" y="1" width="2" height="1" fill="#000000"/>
<rect x="47" y="2" width="3" height="1" fill="#000000"/>
<rect x="44" y="3" width="3" height="1" fill="#000000"/>
<rect x="47" y="3" width="2" height="1" fill="#e3e3e3"/>
<rect x="49" y="3" width="1" height="1" fill="#000000"/>
<rect x="42" y="4" width="2" height="1" fill="#000000"/>
<rect x="44" y="4" width="2" height="1" fill="#b4b4b4"/>
<rect x="46" y="4" width="2" height="1" fill="#e3e3e3"/>
<rect x="48" y="4" width="2" height="1" fill="#000000"/>
<rect x="41" y="5" width="2" height="1" fill="#000000"/>
<rect x="43" y="5" width="2" height="1" fill="#b4b4b4"/>
<rect x="45" y="5" width="2" height="1" fill="#e3e3e3"/>
<rect x="47" y="5" width="2" height="1" fill="#000000"/>
<rect x="41" y="6" width="1" height="1" fill="#000000"/>
<rect x="42" y="6" width="3" height="1" fill="#b4b4b4"/>
<rect x="45" y="6" width="1" height="1" fill="#e3e3e3"/>
<rect x="46" y="6" width="2" height="1" fill="#000000"/>
<rect x="41" y="7" width="1" height="1" fill="#000000"/>
<rect x="42" y="7" width="2" height="1" fill="#b4b4b4"/>
<rect x="44" y="7" width="2" height="1" fill="#e3e3e3"/>
<rect x="46" y="7" width="1" height="1" fill="#000000"/>
<rect x="42" y="8" width="1" height="1" fill="#000000"/>
<rect x="43" y="8" width="1" height="1" fill="#b4b4b4"/>
<rect x="44" y="8" width="1" height="1" fill="#e3e3e3"/>
<rect x="45" y="8" width="1" height="1" fill="#000000"/>
<rect x="42" y="9" width="1" height="1" fill="#000000"/>
<rect x="43" y="9" width="1" height="1" fill="#b4b4b4"/>
<rect x="44" y="9" width="1" height="1" fill="#e3e3e3"/>
<rect x="45" y="9" width="1" height="1" fill="#000000"/>
<rect x="42" y="10" width="1" height="1" fill="#000000"/>
<rect x="43" y="10" width="1" height="1" fill="#b4b4b4"/>
<rect x="44" y="10" width="1" height="1" fill="#e3e3e3"/>
<rect x="45" y="10" width="1" height="1" fill="#000000"/>
<rect x="42" y="11" width="1" height="1" fill="#000000"/>
<rect x="43" y="11" width="1" height="1" fill="#b4b4b4"/>
<rect x="44" y="11" width="1" height="1" fill="#e3e3e3"/>
<rect x="45" y="11" width="1" height="1" fill="#000000"/>
<rect x="7" y="12" width="3" height="1" fill="#000000"/>
<rect x="41" y="12" width="1" height="1" fill="#000000"/>
<rect x="42" y="12" width="2" height="1" fill="#b4b4b4"/>
<rect x="44" y="12" width="1" height="1" fill="#e3e3e3"/>
<rect x="45" y="12" width="2" height="1" fill="#000000"/>
<rect x="2" y="13" width="6" height="1" fill="#000000"/>
<rect x="8" y="13" width="1" height="1" fill="#ff7e00"/>
<rect x="9" y="13" width="5" height="1" fill="#000000"/>
<rect x="40" y="13" width="2" height="1" fill="#000000"/>
<rect x="42" y="13" width="2" height="1" fill="#b4b4b4"/>
<rect x="44" y="13" width="2" height="1" fill="#e3e3e3"/>
<rect x="46" y="13" width="2" height="1" fill="#000000"/>
<rect x="2" y="14" width="1" height="1" fill="#000000"/>
<rect x="3" y="14" width="2" height="1" fill="#ff7e00"/>
<rect x="5" y="14" width="2" height="1" fill="#000000"/>
<rect x="7" y="14" width="4" height="1" fill="#ff7e00"/>
<rect x="11" y="14" width="1" height="1" fill="#000000"/>
<rect x="12" y="14" width="1" height="1" fill="#ffffff"/>
<rect x="13" y="14" width="3" height="1" fill="#000000"/>
<rect x="39" y="14" width="2" height="1" fill="#000000"/>
<rect x="41" y="14" width="4" height="1" fill="#b4b4b4"/>
<rect x="45" y="14" width="2" height="1" fill="#e3e3e3"/>
<rect x="47" y="14" width="2" height="1" fill="#000000"/>
<rect x="1" y="15" width="2" height="1" fill="#000000"/>
<rect x="3" y="15" width="7" height="1" fill="#ff7e00"/>
<rect x="10" y="15" width="2" height="1" fill="#000000"/>
<rect x="12" y="15" width="3" height="1" fill="#ffffff"/>
<rect x="15" y="15" width="4" height="1" fill="#000000"/>
<rect x="37" y="15" width="3" height="1" fill="#000000"/>
<rect x="40" y="15" width="6" height="1" fill="#b4b4b4"/>
<rect x="46" y="15" width="2" height="1" fill="#e3e3e3"/>
<rect x="48" y="15" width="2" height="1" fill="#000000"/>
<rect x="0" y="16" width="2" height="1" fill="#000000"/>
<rect x="2" y="16" width="7" height="1" fill="#ff7e00"/>
<rect x="9" y="16" width="2" height="1" fill="#000000"/>
<rect x="11" y="16" width="7" height="1" fill="#ffffff"/>
<rect x="18" y="16" width="3" height="1" fill="#000000"/>
<rect x="35" y="16" width="3" height="1" fill="#000000"/>
<rect x="38" y="16" width="8" height="1" fill="#b4b4b4"/>
<rect x="46" y="16" width="3" height="1" fill="#e3e3e3"/>
<rect x="49" y="16" width="1" height="1" fill="#000000"/>
<rect x="0" y="17" width="1" height="1" fill="#000000"/>
<rect x="1" y="17" width="2" height="1" fill="#e87102"/>
<rect x="3" y="17" width="5" height="1" fill="#ff7e00"/>
<rect x="8" y="17" width="2" height="1" fill="#000000"/>
<rect x="10" y="17" width="10" height="1" fill="#ffffff"/>
<rect x="20" y="17" width="4" height="1" fill="#000000"/>
<rect x="35" y="17" width="1" height="1" fill="#000000"/>
<rect x="36" y="17" width="11" height="1" fill="#b4b4b4"/>
<rect x="47" y="17" width="2" height="1" fill="#e3e3e3"/>
<rect x="49" y="17" width="1" height="1" fill="#000000"/>
<rect x="0" y="18" width="1" height="1" fill="#000000"/>
<rect x="1" y="18" width="4" height="1" fill="#e87102"/>
<rect x="5" y="18" width="3" height="1" fill="#ff7e00"/>
<rect x="8" y="18" width="1" height="1" fill="#000000"/>
<rect x="9" y="18" width="14" height="1" fill="#ffffff"/>
<rect x="23" y="18" width="2" height="1" fill="#000000"/>
<rect x="35" y="18" width="1" height="1" fill="#000000"/>
<rect x="36" y="18" width="11" height="1" fill="#b4b4b4"/>
<rect x="47" y="18" width="1" height="1" fill="#e3e3e3"/>
<rect x="48" y="18" width="2" height="1" fill="#000000"/>
<rect x="0" y="19" width="1" height="1" fill="#000000"/>
<rect x="1" y="19" width="6" height="1" fill="#e87102"/>
<rect x="7" y="19" width="1" height="1" fill="#ff7e00"/>
<rect x="8" y="19" width="1" height="1" fill="#000000"/>
<rect x="9" y="19" width="15" height="1" fill="#ffffff"/>
<rect x="24" y="19" width="3" height="1" fill="#000000"/>
<rect x="35" y="19" width="1" height="1" fill="#000000"/>
<rect x="36" y="19" width="9" height="1" fill="#b4b4b4"/>
<rect x="45" y="19" width="3" height="1" fill="#e3e3e3"/>
<rect x="48" y="19" width="1" height="1" fill="#000000"/>
<rect x="1" y="20" width="1" height="1" fill="#000000"/>
<rect x="2" y="20" width="5" height="1" fill="#e87102"/>
<rect x="7" y="20" width="2" height="1" fill="#000000"/>
<rect x="9" y="20" width="17" height="1" fill="#ffffff"/>
<rect x="26" y="20" width="3" height="1" fill="#000000"/>
<rect x="35" y="20" width="8" height="1" fill="#000000"/>
<rect x="43" y="20" width="1" height="1" fill="#b4b4b4"/>
<rect x="44" y="20" width="2" height="1" fill="#e3e3e3"/>
<rect x="46" y="20" width="2" height="1" fill="#000000"/>
<rect x="1" y="21" width="1" height="1" fill="#000000"/>
<rect x="2" y="21" width="5" height="1" fill="#e87102"/>
<rect x="7" y="21" width="1" height="1" fill="#000000"/>
<rect x="8" y="21" width="3" height="1" fill="#f0f0f0"/>
<rect x="11" y="21" width="17" height="1" fill="#ffffff"/>
<rect x="28" y="21" width="3" height="1" fill="#000000"/>
<rect x="41" y="21" width="1" height="1" fill="#000000"/>
<rect x="42" y="21" width="2" height="1" fill="#b4b4b4"/>
<rect x="44" y="21" width="1" height="1" fill="#e3e3e3"/>
<rect x="45" y="21" width="2" height="1" fill="#000000"/>
<rect x="1" y="22" width="1" height="1" fill="#000000"/>
<rect x="2" y="22" width="5" height="1" fill="#e87102"/>
<rect x="7" y="22" width="1" height="1" fill="#000000"/>
<rect x="8" y="22" width="4" height="1" fill="#f0f0f0"/>
<rect x="12" y="22" width="18" height="1" fill="#ffffff"/>
<rect x="30" y="22" width="2" height="1" fill="#000000"/>
<rect x="40" y="22" width="2" height="1" fill="#000000"/>
<rect x="42" y="22" width="2" height="1" fill="#b4b4b4"/>
<rect x="44" y="22" width="1" height="1" fill="#e3e3e3"/>
<rect x="45" y="22" width="1" height="1" fill="#000000"/>
<rect x="1" y="23" width="5" height="1" fill="#000000"/>
<rect x="6" y="23" width="1" height="1" fill="#e87102"/>
<rect x="7" y="23" width="1" height="1" fill="#000000"/>
<rect x="8" y="23" width="7" height="1" fill="#f0f0f0"/>
<rect x="15" y="23" width="17" height="1" fill="#ffffff"/>
<rect x="32" y="23" width="1" height="1" fill="#000000"/>
<rect x="40" y="23" width="1" height="1" fill="#000000"/>
<rect x="41" y="23" width="3" height="1" fill="#b4b4b4"/>
<rect x="44" y="23" width="1" height="1" fill="#e3e3e3"/>
<rect x="45" y="23" width="2" height="1" fill="#000000"/>
<rect x="5" y="24" width="4" height="1" fill="#000000"/>
<rect x="9" y="24" width="8" height="1" fill="#f0f0f0"/>
<rect x="17" y="24" width="16" height="1" fill="#ffffff"/>
<rect x="33" y="24" width="3" height="1" fill="#000000"/>
<rect x="40" y="24" width="1" height="1" fill="#000000"/>
<rect x="41" y="24" width="3" height="1" fill="#b4b4b4"/>
<rect x="44" y="24" width="2" height="1" fill="#e3e3e3"/>
<rect x="46" y="24" width="2" height="1" fill="#000000"/>
<rect x="8" y="25" width="2" height="1" fill="#000000"/>
<rect x="10" y="25" width="8" height="1" fill="#f0f0f0"/>
<rect x="18" y="25" width="18" height="1" fill="#ffffff"/>
<rect x="36" y="25" width="2" height="1" fill="#000000"/>
<rect x="40" y="25" width="1" height="1" fill="#000000"/>
<rect x="41" y="25" width="3" height="1" fill="#b4b4b4"/>
<rect x="44" y="25" width="3" height="1" fill="#e3e3e3"/>
<rect x="47" y="25" width="2" height="1" fill="#000000"/>
<rect x="9" y="26" width="3" height="1" fill="#000000"/>
<rect x="12" y="26" width="8" height="1" fill="#f0f0f0"/>
<rect x="20" y="26" width="17" height="1" fill="#ffffff"/>
<rect x="37" y="26" width="4" height="1" fill="#000000"/>
<rect x="41" y="26" width="3" height="1" fill="#b4b4b4"/>
<rect x="44" y="26" width="4" height="1" fill="#e3e3e3"/>
<rect x="48" y="26" width="1" height="1" fill="#000000"/>
<rect x="11" y="27" width="3" height="1" fill="#000000"/>
<rect x="14" y="27" width="8" height="1" fill="#f0f0f0"/>
<rect x="22" y="27" width="17" height="1" fill="#ffffff"/>
<rect x="39" y="27" width="2" height="1" fill="#000000"/>
<rect x="41" y="27" width="3" height="1" fill="#b4b4b4"/>
<rect x="44" y="27" width="4" height="1" fill="#e3e3e3"/>
<rect x="48" y="27" width="1" height="1" fill="#000000"/>
<rect x="13" y="28" width="3" height="1" fill="#000000"/>
<rect x="16" y="28" width="8" height="1" fill="#f0f0f0"/>
<rect x="24" y="28" width="15" height="1" fill="#ffffff"/>
<rect x="39" y="28" width="3" height="1" fill="#000000"/>
<rect x="42" y="28" width="1" height="1" fill="#b4b4b4"/>
<rect x="43" y="28" width="6" height="1" fill="#e3e3e3"/>
<rect x="49" y="28" width="1" height="1" fill="#000000"/>
<rect x="15" y="29" width="2" height="1" fill="#000000"/>
<rect x="17" y="29" width="8" height="1" fill="#f0f0f0"/>
<rect x="25" y="29" width="9" height="1" fill="#ffffff"/>
<rect x="34" y="29" width="8" height="1" fill="#000000"/>
<rect x="42" y="29" width="7" height="1" fill="#e3e3e3"/>
<rect x="49" y="29" width="1" height="1" fill="#000000"/>
<rect x="17" y="30" width="2" height="1" fill="#000000"/>
<rect x="19" y="30" width="8" height="1" fill="#f0f0f0"/>
<rect x="27" y="30" width="6" height="1" fill="#ffffff"/>
<rect x="33" y="30" width="1" height="1" fill="#000000"/>
<rect x="34" y="30" width="7" height="1" fill="#ffa3b1"/>
<rect x="41" y="30" width="1" height="1" fill="#ed1c24"/>
<rect x="42" y="30" width="2" height="1" fill="#000000"/>
<rect x="44" y="30" width="5" height="1" fill="#e3e3e3"/>
<rect x="49" y="30" width="1" height="1" fill="#000000"/>
<rect x="18" y="31" width="2" height="1" fill="#000000"/>
<rect x="20" y="31" width="9" height="1" fill="#f0f0f0"/>
<rect x="29" y="31" width="3" height="1" fill="#ffffff"/>
<rect x="32" y="31" width="1" height="1" fill="#000000"/>
<rect x="33" y="31" width="1" height="1" fill="#ffa3b1"/>
<rect x="34" y="31" width="3" height="1" fill="#ed1c24"/>
<rect x="37" y="31" width="3" height="1" fill="#ffa3b1"/>
<rect x="40" y="31" width="4" height="1" fill="#ed1c24"/>
<rect x="44" y="31" width="1" height="1" fill="#000000"/>
<rect x="45" y="31" width="3" height="1" fill="#e3e3e3"/>
<rect x="48" y="31" width="2" height="1" fill="#000000"/>
<rect x="19" y="32" width="3" height="1" fill="#000000"/>
<rect x="22" y="32" width="8" height="1" fill="#f0f0f0"/>
<rect x="30" y="32" width="1" height="1" fill="#ffffff"/>
<rect x="31" y="32" width="1" height="1" fill="#000000"/>
<rect x="32" y="32" width="2" height="1" fill="#ffa3b1"/>
<rect x="34" y="32" width="10" height="1" fill="#ed1c24"/>
<rect x="44" y="32" width="5" height="1" fill="#000000"/>
<rect x="21" y="33" width="3" height="1" fill="#000000"/>
<rect x="24" y="33" width="7" height="1" fill="#f0f0f0"/>
<rect x="31" y="33" width="1" height="1" fill="#000000"/>
<rect x="32" y="33" width="1" height="1" fill="#ffa3b1"/>
<rect x="33" y="33" width="1" height="1" fill="#ed1c24"/>
<rect x="34" y="33" width="2" height="1" fill="#990030"/>
<rect x="36" y="33" width="6" height="1" fill="#ed1c24"/>
<rect x="42" y="33" width="1" height="1" fill="#990030"/>
<rect x="43" y="33" width="2" height="1" fill="#ed1c24"/>
<rect x="45" y="33" width="2" height="1" fill="#000000"/>
<rect x="23" y="34" width="3" height="1" fill="#000000"/>
<rect x="26" y="34" width="5" height="1" fill="#f0f0f0"/>
<rect x="31" y="34" width="1" height="1" fill="#000000"/>
<rect x="32" y="34" width="3" height="1" fill="#ed1c24"/>
<rect x="35" y="34" width="1" height="1" fill="#990030"/>
<rect x="36" y="34" width="4" height="1" fill="#ed1c24"/>
<rect x="40" y="34" width="2" height="1" fill="#990030"/>
<rect x="42" y="34" width="3" height="1" fill="#ed1c24"/>
<rect x="45" y="34" width="1" height="1" fill="#000000"/>
<rect x="25" y="35" width="2" height="1" fill="#000000"/>
<rect x="27" y="35" width="4" height="1" fill="#f0f0f0"/>
<rect x="31" y="35" width="1" height="1" fill="#000000"/>
<rect x="32" y="35" width="3" height="1" fill="#ed1c24"/>
<rect x="35" y="35" width="1" height="1" fill="#990030"/>
<rect x="36" y="35" width="5" height="1" fill="#ed1c24"/>
<rect x="41" y="35" width="1" height="1" fill="#990030"/>
<rect x="42" y="35" width="4" height="1" fill="#ed1c24"/>
<rect x="46" y="35" width="1" height="1" fill="#000000"/>
<rect x="26" y="36" width="2" height="1" fill="#000000"/>
<rect x="28" y="36" width="3" height="1" fill="#f0f0f0"/>
<rect x="31" y="36" width="1" height="1" fill="#000000"/>
<rect x="32" y="36" width="14" height="1" fill="#ed1c24"/>
<rect x="46" y="36" width="1" height="1" fill="#000000"/>
<rect x="27" y="37" width="2" height="1" fill="#000000"/>
<rect x="29" y="37" width="2" height="1" fill="#f0f0f0"/>
<rect x="31" y="37" width="1" height="1" fill="#000000"/>
<rect x="32" y="37" width="5" height="1" fill="#ed1c24"/>
<rect x="37" y="37" width="2" height="1" fill="#990030"/>
<rect x="39" y="37" width="7" height="1" fill="#ed1c24"/>
<rect x="46" y="37" width="1" height="1" fill="#000000"/>
<rect x="28" y="38" width="4" height="1" fill="#000000"/>
<rect x="32" y="38" width="10" height="1" fill="#ed1c24"/>
<rect x="42" y="38" width="1" height="1" fill="#990030"/>
<rect x="43" y="38" width="3" height="1" fill="#ed1c24"/>
<rect x="46" y="38" width="1" height="1" fill="#000000"/>
<rect x="30" y="39" width="2" height="1" fill="#000000"/>
<rect x="32" y="39" width="4" height="1" fill="#ed1c24"/>
<rect x="36" y="39" width="2" height="1" fill="#990030"/>
<rect x="38" y="39" width="3" height="1" fill="#ed1c24"/>
<rect x="41" y="39" width="3" height="1" fill="#990030"/>
<rect x="44" y="39" width="2" height="1" fill="#ed1c24"/>
<rect x="46" y="39" width="1" height="1" fill="#000000"/>
<rect x="31" y="40" width="2" height="1" fill="#000000"/>
<rect x="33" y="40" width="3" height="1" fill="#ed1c24"/>
<rect x="36" y="40" width="2" height="1" fill="#990030"/>
<rect x="38" y="40" width="7" height="1" fill="#ed1c24"/>
<rect x="45" y="40" width="1" height="1" fill="#000000"/>
<rect x="32" y="41" width="1" height="1" fill="#000000"/>
<rect x="33" y="41" width="11" height="1" fill="#ed1c24"/>
<rect x="44" y="41" width="1" height="1" fill="#000000"/>
<rect x="33" y="42" width="2" height="1" fill="#000000"/>
<rect x="35" y="42" width="7" height="1" fill="#ed1c24"/>
<rect x="42" y="42" width="2" height="1" fill="#000000"/>
<rect x="35" y="43" width="8" height="1" fill="#000000"/>
</svg>
